<svg xmlns="http://www.w3.org/2000/svg" width="573.755" height="512" viewBox="0 0 573.755 512">
  <path id="cart-shopping-regular" d="M80,0A15.994,15.994,0,0,1,95.6,12.45L100,32H541.8c20.3,0,36.5,20.25,30.8,40.66l-54,192.04A32.012,32.012,0,0,1,487.8,288H158.2l14.6,64H496a16,16,0,0,1,0,32H160a16.035,16.035,0,0,1-15.6-12.5L67.23,32H16A16,16,0,0,1,16,0Zm27.3,64,42.8,192H487.8l54-192ZM128,456a56,56,0,1,1,56,56A56.036,56.036,0,0,1,128,456Zm56,24a24,24,0,1,0-24-24A23.942,23.942,0,0,0,184,480Zm328-24a56,56,0,1,1-56-56A56.036,56.036,0,0,1,512,456Zm-56-24a24,24,0,1,0,24,24A23.942,23.942,0,0,0,456,432Z" fill="#fff"/>
</svg>
